<svg xmlns="http://www.w3.org/2000/svg" viewBox="0 0 800 600">
  <rect width="800" height="600" rx="48" fill="#ffffff"/>
  <circle cx="630" cy="150" r="92" fill="#6D4C41" opacity="0.10"/>
  <circle cx="170" cy="460" r="110" fill="#2E7D32" opacity="0.10"/>
  <g>
    <rect x="250" y="140" width="300" height="360" rx="36" fill="#FFF8E1" stroke="#000" stroke-opacity="0.07"/>
    <rect x="290" y="190" width="220" height="48" rx="16" fill="#2E7D32" opacity="0.14"/>
    <rect x="290" y="258" width="220" height="20" rx="10" fill="#6D4C41" opacity="0.20"/>
    <rect x="290" y="290" width="180" height="20" rx="10" fill="#6D4C41" opacity="0.14"/>
    <rect x="290" y="332" width="220" height="110" rx="20" fill="#ffffff" stroke="#000" stroke-opacity="0.05"/>
    <text x="400" y="382" font-size="30" text-anchor="middle" font-family="system-ui, -apple-system, Segoe UI, Roboto" fill="#6D4C41" font-weight="800">
      Senior Health
    </text>
    <text x="400" y="416" font-size="20" text-anchor="middle" font-family="system-ui, -apple-system, Segoe UI, Roboto" fill="#2E7D32" font-weight="700">
      Millet Mix
    </text>
  </g>
  <g opacity="0.55">
    <path d="M140 190c18-26 52-30 76-12 24 18 30 52 12 76-18 24-52 30-76 12-24-18-30-52-12-76Z" fill="#F57C00" opacity="0.5"/>
  </g>
</svg>


